<svg width="259" height="26" viewBox="0 0 259 26" fill="none" xmlns="http://www.w3.org/2000/svg">
<path d="M257.898 21.9477C257.133 24.6525 255.434 25.9864 251.527 25.9864C246.387 25.9864 245.198 23.8744 244.816 20.3173L249.021 15.871C248.893 17.9459 248.341 22.7258 249.743 24.5414C250.21 25.2083 250.847 25.3195 251.484 25.1713C253.098 24.7637 253.735 23.1704 253.82 21.5401C253.99 16.0192 243.966 12.5362 244.688 4.7921C245.07 1.04974 246.982 -0.284173 252.036 0.0493042C256.836 0.271624 257.303 2.79123 256.921 9.20141L252.758 6.0519C252.843 4.7921 253.056 0.6051 250.762 0.901525C249.318 1.08679 248.893 2.93944 248.978 4.60683C249.275 9.60899 256.241 13.0179 257.771 17.7977C258.238 19.3169 258.28 20.7249 257.898 21.9477Z" fill="black"/>
<path d="M229.094 0.0493164H243.239C243.239 2.97651 243.239 5.9037 243.239 8.83089C237.42 9.01616 241.837 0.679219 236.995 0.753324H234.574V12.6474H234.701C236.74 12.6474 239.161 11.6469 239.671 9.72017V16.3156C239.204 14.463 236.613 13.4625 234.574 13.3884V25.2825H236.995C241.837 25.3566 237.42 17.0196 243.239 17.2049C243.239 20.1321 243.239 23.0222 243.239 25.9494V25.9865H229.094C229.774 25.3195 229.902 23.8003 229.944 21.9106V19.8357C229.944 19.6504 229.944 19.4651 229.944 19.2799V6.75592C229.944 6.57065 229.944 6.38539 229.944 6.20013V4.12515C229.902 2.23545 229.774 0.716272 229.094 0.0493164Z" fill="black"/>
<path d="M213.455 0.0493164H220.761C225.9 0.0493164 227.599 2.79124 227.514 8.60857C227.472 12.7215 226.75 15.2781 224.541 16.4638L225.348 19.2799L225.475 19.7986L226.113 21.9106C226.665 23.8003 227.259 25.3195 228.151 25.9865H221.822C222.29 25.3195 221.992 23.8003 221.483 21.9106L220.846 19.7986L220.718 19.3169L220.123 17.2049H218.934V19.2799C218.934 19.4651 218.934 19.6504 218.934 19.8357V21.9106C218.977 23.8003 219.104 25.3195 219.784 25.9865H213.455C214.134 25.3195 214.262 23.8003 214.304 21.9106V19.8357C214.304 19.6504 214.304 19.4651 214.304 19.2799V6.75592C214.304 6.57065 214.304 6.38539 214.304 6.20013V4.12515C214.262 2.23545 214.134 0.716272 213.455 0.0493164ZM219.656 0.753324H218.934V16.5009H219.784C219.954 16.5009 221.228 16.575 221.61 15.7598C223.012 13.0179 222.927 3.38409 221.44 1.19796C221.015 0.568059 219.911 0.753324 219.656 0.753324Z" fill="black"/>
<path d="M203.461 21.503C203.461 27.1722 210.64 26.3199 210.64 21.503C210.597 18.5758 208.898 1.42028 206.902 0.0493164C208.176 0.0493164 210.979 0.0493164 212.296 0.0493164C211.617 0.716272 211.447 2.23545 211.447 4.12515V6.20013C211.447 6.38539 211.447 6.57065 211.447 6.75592V21.503C211.447 24.2079 210.3 25.9494 206.774 25.9865C202.187 26.0606 198.874 25.9865 198.831 21.503V6.75592C198.831 6.57065 198.831 6.38539 198.831 6.20013V4.12515C198.789 2.23545 198.662 0.716272 197.982 0.0493164C200.106 0.0493164 202.187 0.0493164 204.311 0.0493164C203.631 0.716272 203.504 2.23545 203.461 4.12515V6.20013C203.461 6.38539 203.461 6.57065 203.461 6.75592V21.503Z" fill="black"/>
<path d="M184.242 0.0493164H197.239V0.753324C197.197 3.30999 197.239 5.82959 197.239 8.38626C192.312 6.31128 194.903 0.938589 193.246 0.753324H193.077V19.2799C193.077 19.4651 193.077 19.6504 193.077 19.8357V21.9106C193.077 23.8003 193.204 25.3195 193.926 25.9865H187.597C188.277 25.3195 188.404 23.8003 188.447 21.9106V19.8357C188.447 19.6504 188.447 19.4651 188.447 19.2799V0.753324H188.234C186.578 0.938589 189.211 6.31128 184.284 8.38626C184.284 5.82959 184.284 3.30999 184.242 0.753324V0.0493164Z" fill="black"/>
<path d="M177.571 25.2825C178.675 25.2825 179.27 20.6138 179.398 15.3522C182.328 18.3165 183.815 19.7615 183.815 19.7615C183.05 23.9856 181.224 25.9865 177.571 25.9865C172.304 25.9865 170.902 21.5401 170.817 13.0179C170.733 4.49568 172.432 0.0493164 177.571 0.0493164C180.332 0.0493164 182.116 1.27207 183.135 3.75462C183.688 5.42201 183.772 6.49655 183.39 7.01529C181.946 8.31215 180.629 10.313 179.44 13.0179C179.398 6.90413 178.803 0.753324 177.571 0.753324C175.15 0.753324 175.065 25.2825 177.571 25.2825Z" fill="black"/>
<path d="M163.059 0.0493164H169.387C168.708 0.716272 168.58 2.23545 168.538 4.12515V6.20013C168.538 6.38539 168.538 6.57065 168.538 6.75592V19.2799C168.538 19.4651 168.538 19.6504 168.538 19.8357V21.9106C168.58 23.8003 168.708 25.3195 169.387 25.9865H163.059C163.738 25.3195 163.866 23.8003 163.908 21.9106V19.8357C163.908 19.6504 163.908 19.4651 163.908 19.2799V6.75592C163.908 6.57065 163.908 6.38539 163.908 6.20013V4.12515C163.866 2.23545 163.738 0.716272 163.059 0.0493164Z" fill="black"/>
<path d="M148.041 0.0493164H155.347C160.486 0.0493164 162.185 2.79124 162.1 8.60857C162.015 14.4259 160.613 17.2049 155.347 17.2049H153.52V19.2799C153.52 19.4651 153.52 19.6504 153.52 19.8357V21.9106C153.563 23.8003 153.69 25.3195 154.37 25.9865H148.041C148.72 25.3195 148.848 23.8003 148.89 21.9106V19.8357C148.89 19.6504 148.89 19.4651 148.89 19.2799V6.75592C148.89 6.57065 148.89 6.38539 148.89 6.20013V4.12515C148.848 2.23545 148.72 0.716272 148.041 0.0493164ZM154.242 0.753324H153.52V16.5009H154.327C154.54 16.5009 155.814 16.575 156.196 15.7598C157.598 13.0179 157.513 3.38409 156.026 1.19796C155.601 0.568059 154.497 0.753324 154.242 0.753324Z" fill="black"/>
<path d="M131.113 25.2825C131.92 25.2825 132.77 23.3186 132.727 19.4651V13.4255C131.198 13.6107 130.689 14.5741 130.264 16.3156V12.6474H137.357V19.7615C137.145 24.6896 134.766 25.9865 131.113 25.9865C125.846 25.9865 124.445 21.5401 124.36 13.0179C124.275 4.49568 125.974 0.0493164 131.113 0.0493164C133.874 0.0493164 135.658 1.27207 136.678 3.75462C137.23 5.42201 137.315 6.49655 136.932 7.01529C135.488 8.31215 133.917 10.4242 132.94 11.4246C132.94 10.7947 132.94 9.64606 132.897 9.05321C132.812 3.97694 132.218 0.753324 131.113 0.753324C128.692 0.753324 128.607 25.2825 131.113 25.2825Z" fill="black"/>
<path d="M109.342 0.0493164H115.331L121.235 23.6892C121.065 18.687 119.961 0.938589 119.069 0.0493164H122.892C122.212 0.716272 122.085 2.23545 122.042 4.12515V6.20013C122.042 6.38539 122.042 6.57065 122.042 6.75592V19.2799C122.042 19.4651 122.042 19.6504 122.042 19.8357V21.9106C122.085 23.8003 122.212 25.3195 122.892 25.9865H116.903L110.999 2.30955C111.168 7.27467 112.273 25.0972 113.207 25.9865H109.342C110.022 25.3195 110.149 23.8003 110.192 21.9106V19.8357C110.192 19.6504 110.192 19.4651 110.192 19.2799V6.75592C110.192 6.57065 110.192 6.38539 110.192 6.20013V4.12515C110.149 2.23545 110.022 0.716272 109.342 0.0493164Z" fill="black"/>
<path d="M98.952 0.0493164H103.582L106.98 20.4656C107.574 24.0968 108.212 25.5048 108.849 25.9865H101.543C102.52 25.2083 102.732 23.0222 102.18 19.391L101.076 12.8326L100.948 13.129C99.1644 17.3531 97.8901 20.3173 98.5272 24.3191C98.7396 25.0231 98.9945 25.6159 99.2918 25.9865H93.3877C94.6195 25.2083 95.2566 22.3182 96.1486 17.3902L98.952 0.0493164ZM100.184 12.9067C100.396 12.388 100.609 11.8692 100.821 11.3505L99.3767 2.53187L98.3148 8.94205H98.3573C97.975 11.4987 97.6777 15.7598 97.8476 19.4281C98.2724 17.3531 99.1219 15.3152 100.184 12.9067Z" fill="black"/>
<path d="M84.4522 15.6487L82.7957 25.9865H78.1659L74.7678 5.57022C74.1732 1.93902 73.5361 0.531007 72.8989 0.0493164H80.2047C79.2278 0.827432 79.0154 3.01356 79.61 6.64476L82.3709 23.5039L83.4328 17.0937C83.6027 15.7969 83.7726 14.0183 83.9001 12.1286L82.7957 5.57022C82.201 1.93902 81.5639 0.531007 80.9268 0.0493164H88.36C88.1476 0.197529 87.8928 0.419847 87.7229 0.753324C87.2131 1.82786 87.1707 3.79168 87.5954 6.64476L90.3988 23.5039L91.4182 17.0937C92.0978 12.4621 92.4801 2.42071 90.4413 0.0493164H96.3878C95.1561 0.827432 94.4764 3.71757 93.5845 8.64563L90.8236 25.9865H86.1937L84.4522 15.6487Z" fill="black"/>
<path d="M66.8196 25.2825C67.6266 25.2825 68.4761 23.3186 68.4337 19.4651V13.4255C66.9045 13.6107 66.3948 14.5741 65.9701 16.3156V12.6474H73.0635V19.7615C72.8511 24.6896 70.4725 25.9865 66.8196 25.9865C61.5526 25.9865 60.151 21.5401 60.066 13.0179C59.981 4.49568 61.6801 0.0493164 66.8196 0.0493164C69.5805 0.0493164 71.3645 1.27207 72.3839 3.75462C72.9361 5.42201 73.021 6.49655 72.6387 7.01529C71.1946 8.31215 69.623 10.4242 68.646 11.4246C68.646 10.7947 68.646 9.64606 68.6036 9.05321C68.5186 3.97694 67.924 0.753324 66.8196 0.753324C64.3985 0.753324 64.3135 25.2825 66.8196 25.2825Z" fill="black"/>
<path d="M45.0483 0.0493164H51.0374L56.9415 23.6892C56.7716 18.687 55.6672 0.938589 54.7752 0.0493164H58.598C57.9184 0.716272 57.791 2.23545 57.7485 4.12515V6.20013C57.7485 6.38539 57.7485 6.57065 57.7485 6.75592V19.2799C57.7485 19.4651 57.7485 19.6504 57.7485 19.8357V21.9106C57.791 23.8003 57.9184 25.3195 58.598 25.9865H52.609L46.7049 2.30955C46.8748 7.27467 47.9791 25.0972 48.9136 25.9865H45.0483C45.7279 25.3195 45.8554 23.8003 45.8978 21.9106V19.8357C45.8978 19.6504 45.8978 19.4651 45.8978 19.2799V6.75592C45.8978 6.57065 45.8978 6.38539 45.8978 6.20013V4.12515C45.8554 2.23545 45.7279 0.716272 45.0483 0.0493164Z" fill="black"/>
<path d="M34.6585 0.0493164H39.2883L42.6864 20.4656C43.281 24.0968 43.9182 25.5048 44.5553 25.9865H37.2495C38.2265 25.2083 38.4388 23.0222 37.8867 19.391L36.7823 12.8326L36.6549 13.129C34.8709 17.3531 33.5966 20.3173 34.2338 24.3191C34.4461 25.0231 34.701 25.6159 34.9983 25.9865H29.0942C30.326 25.2083 30.9632 22.3182 31.8551 17.3902L34.6585 0.0493164ZM35.8903 12.9067C36.1027 12.388 36.3151 11.8692 36.5274 11.3505L35.0833 2.53187L34.0214 8.94205H34.0639C33.6816 11.4987 33.3843 15.7598 33.5542 19.4281C33.9789 17.3531 34.8284 15.3152 35.8903 12.9067Z" fill="black"/>
<path d="M13.9797 0.0493164H20.3086C19.629 0.716272 19.5015 2.23545 19.4591 4.12515V6.20013C19.4591 6.38539 19.4591 6.57065 19.4591 6.75592V16.4638C19.7564 15.4263 20.0962 14.463 20.4785 13.5366C21.243 11.7581 22.22 10.2389 23.3668 9.01616V6.75592C23.3668 6.57065 23.3668 6.38539 23.3668 6.20013V4.12515C23.3243 2.23545 23.1969 0.716272 22.5173 0.0493164H28.8461C28.1665 0.716272 27.9966 2.23545 27.9966 4.12515V6.20013C27.9966 6.38539 27.9966 6.57065 27.9966 6.75592V19.2799C27.9966 19.4651 27.9966 19.6504 27.9966 19.8357V21.9106C27.9966 23.8003 28.1665 25.3195 28.8461 25.9865H22.5173C23.1969 25.3195 23.3243 23.8003 23.3668 21.9106V19.8357C23.3668 19.6504 23.3668 19.4651 23.3668 19.2799V10.2019C22.5598 11.2393 21.8377 12.425 21.243 13.796C20.436 15.6487 19.8413 17.7607 19.4591 20.2062V21.9106C19.5015 23.8003 19.629 25.3195 20.3086 25.9865H13.9797C14.6593 25.3195 14.7868 23.8003 14.8292 21.9106V19.8357C14.8292 19.6504 14.8292 19.4651 14.8292 19.2799V6.75592C14.8292 6.57065 14.8292 6.38539 14.8292 6.20013V4.12515C14.7868 2.23545 14.6593 0.716272 13.9797 0.0493164Z" fill="black"/>
<path d="M6.75661 25.2825C7.86097 25.2825 8.45562 20.6138 8.58305 15.3522C11.5139 18.3165 13.0005 19.7615 13.0005 19.7615C12.2359 23.9856 10.4095 25.9865 6.75661 25.9865C1.48965 25.9865 0.0879628 21.5401 0.00301196 13.0179C-0.0819389 4.49568 1.61708 0.0493164 6.75661 0.0493164C9.51751 0.0493164 11.3015 1.27207 12.3209 3.75462C12.8731 5.42201 12.958 6.49655 12.5757 7.01529C11.1316 8.31215 9.81484 10.313 8.62553 13.0179C8.58305 6.90413 7.98839 0.753324 6.75661 0.753324C4.33551 0.753324 4.25056 25.2825 6.75661 25.2825Z" fill="black"/>
</svg>
